<svg xmlns="http://www.w3.org/2000/svg" width="24" height="70" viewBox="0 0 1036 3024" shape-rendering="geometricPrecision" text-rendering="geometricPrecision" image-rendering="optimizeQuality" fill-rule="evenodd" clip-rule="evenodd"><path fill="#fefffe" d="M516.5-.5h2c24.485 57.64 48.985 115.307 73.5 173 18.203 55.727 10.869 107.727-22 156a178.562 178.562 0 0 1-21.5 23.5c43.566-20.742 85.232-17.408 125 10 28.393 22.956 42.726 52.789 43 89.5-8.072 40.887 1.262 77.054 28 108.5-32.934-4.051-59.101-19.551-78.5-46.5a610.588 610.588 0 0 1-16-29c-20.58-22.321-43.746-25.488-69.5-9.5-8.644 6.977-14.477 15.811-17.5 26.5-13.386 81.681 12.114 148.181 76.5 199.5 62.138 42.458 128.138 49.458 198 21 63.076-30.61 101.243-80.443 114.5-149.5a203.884 203.884 0 0 0 2-43c-4.353-22.686-18.02-35.352-41-38-10.975.6-20.475 4.6-28.5 12a221.461 221.461 0 0 0-16.5 23c-18.832 21.832-42.665 32.999-71.5 33.5 16.895-15.238 27.395-34.071 31.5-56.5a5687.252 5687.252 0 0 1 3-41c12.615-47.404 43.449-72.737 92.5-76a118.514 118.514 0 0 1 29 4.5c8.859 2.939 17.192 6.606 25 11-33.134-41.966-41.301-88.466-24.5-139.5l8-18a12456.035 12456.035 0 0 1 74.5-132v8a199698.428 199698.428 0 0 0-80 723h-876a134240.133 134240.133 0 0 0-80-726v-5c1.385 1.074 2.551 2.407 3.5 4l69 124c19.599 35.529 23.932 72.862 13 112-5.686 18.549-14.853 35.049-27.5 49.5 7.19-3.255 14.524-6.588 22-10 35.509-10.965 67.509-4.631 96 19 24.374 25.112 34.874 55.279 31.5 90.5 3.57 23.311 14.07 42.811 31.5 58.5-36.484-1.319-63.651-17.819-81.5-49.5-16.002-19.667-35.168-23.5-57.5-11.5-14.06 10.968-20.394 25.468-19 43.5 4.28 81.787 42.613 141.287 115 178.5 64.178 27.457 126.512 23.79 187-11 60.122-39.55 91.456-95.55 94-168a195.054 195.054 0 0 0-4.5-41.5c-9.916-26.715-29.083-38.215-57.5-34.5-11.481 2.655-20.981 8.488-28.5 17.5a12123.25 12123.25 0 0 0-14 26c-19.315 29.412-46.482 46.245-81.5 50.5 16.69-17.885 26.523-39.052 29.5-63.5a287.082 287.082 0 0 0-1.5-45c2.148-50.279 26.148-85.446 72-105.5 24.014-8.684 48.348-9.684 73-3a3116.507 3116.507 0 0 0 22 8c-44.489-44.818-60.322-98.318-47.5-160.5a181.801 181.801 0 0 1 8-25 17954.927 17954.927 0 0 0 70.5-166z" opacity=".99"/><path fill="#fefffe" d="M398.5 208.5h4c-1.174 17.125-1.174 34.125 0 51-82.047 22.003-152.713 63.003-212 123a129.47 129.47 0 0 0-18-12c-1.083-.865-1.249-1.865-.5-3 57.982-77.794 133.482-130.794 226.5-159z" opacity=".97"/><path fill="#fefffe" d="M633.5 208.5c95.419 27.345 172.419 80.845 231 160.5a207.226 207.226 0 0 0-19.5 13.5c-59.324-59.6-129.824-100.6-211.5-123a473.596 473.596 0 0 0 0-51z" opacity=".971"/><path fill="#fefffe" d="M725.5 3023.5h-95c-37.522-556.99-75.022-1113.99-112.5-1671a2340891.11 2340891.11 0 0 0-113.5 1671h-95c-73.267-697.67-146.601-1395.34-220-2093 45.239-.33 90.405.003 135.5 1a252842.32 252842.32 0 0 0 107 996c32.104-332.31 63.938-664.65 95.5-997h180a421811.17 421811.17 0 0 0 96.5 999c35.538-333.01 71.038-666.01 106.5-999h135a1672732.321 1672732.321 0 0 1-220 2093z" opacity=".995"/></svg>